<svg xmlns="http://www.w3.org/2000/svg" viewBox="0 0 228.63 100.68"><defs><style>.cls-1,.cls-2{fill:#ffe610;}.cls-1,.cls-3{fill-rule:evenodd;}.cls-4{fill:#fff;}</style></defs><title>Ресурс 1</title><g id="Слой_2" data-name="Слой 2"><g id="Layer_1" data-name="Layer 1"><path class="cls-1" d="M113.54,40.06c-.35-.43-.71-.86-1.06-1.3a39.16,39.16,0,0,1-5.54-9.21,22.45,22.45,0,0,1-1.83-7.47,13.56,13.56,0,0,1,.69-5.43,9.57,9.57,0,0,1,1.94-3.36,10.41,10.41,0,0,1,4.86-3,16.07,16.07,0,0,1,5-.66,25.49,25.49,0,0,1,6.73,1.07,38.05,38.05,0,0,1,7.4,3,50,50,0,0,1,12.44,9.39C148,27,138,19,136.92,18.3c-1.21-.81-2.45-1.6-3.76-2.31a29.37,29.37,0,0,0-8.56-3.15,20.3,20.3,0,0,0-6.82,0,13.08,13.08,0,0,0-4.52,1.55,9.46,9.46,0,0,0-4,3.95,12.62,12.62,0,0,0-1.3,4.5,18.37,18.37,0,0,0,.55,6.53,29.73,29.73,0,0,0,3.62,8.33c.48.77,1,1.53,1.49,2.29Z"/><path class="cls-1" d="M112.74,45.49a41,41,0,0,1-3.48-4.55,32,32,0,0,1-4.16-9,24.31,24.31,0,0,1-1-6.29,19.81,19.81,0,0,1,.47-4.77,17.3,17.3,0,0,1,2.64-6.1,20.31,20.31,0,0,1,2.48-2.92l-.07,0A17.71,17.71,0,0,0,106,15.34a17.32,17.32,0,0,0-3.83,10.81,22.36,22.36,0,0,0,.53,5.2C103.32,34.27,112,45.67,112.74,45.49Z"/><path class="cls-2" d="M117.09,6.33c-2,1.87-4,2.37-4.53,1.12s.58-3.78,2.53-5.64,4-2.37,4.54-1.12S119,4.47,117.09,6.33Z"/><path class="cls-1" d="M100.78,43.72a25.38,25.38,0,0,1-3.72-4.29,12.88,12.88,0,0,1-1.64-3.25,4.4,4.4,0,0,1,.16-3.35A4,4,0,0,1,97.27,31a8.45,8.45,0,0,1,3.75-1.2c.33,0,.67,0,1,0,.06-.18.12-.37.2-.55s.16-.4.26-.6c-.91-.12-1.81-.2-2.72-.23a14,14,0,0,0-4.28.45A5.67,5.67,0,0,0,93,30.15,3.58,3.58,0,0,0,91.93,33a6.72,6.72,0,0,0,.68,2.58,16.41,16.41,0,0,0,2.46,3.78,33.53,33.53,0,0,0,4.93,4.7,57.4,57.4,0,0,0,7.88,5.25l1.27.69,0,0-2-1.28A45.2,45.2,0,0,1,100.78,43.72Z"/><path class="cls-1" d="M138.54,65.15A44.12,44.12,0,0,1,127.63,58a32.32,32.32,0,0,1-4.25-4.59c-.67-.43-1.33-.88-2-1.36a29.09,29.09,0,0,1-8-9.09,17.63,17.63,0,0,0,.47,1.7,23.42,23.42,0,0,0,3.94,7.22,35.61,35.61,0,0,0,8.32,7.59,55,55,0,0,0,13.66,6.62c.74.25,1.48.47,2.22.71l0-.09C140.88,66.2,139.7,65.7,138.54,65.15Z"/><path class="cls-2" d="M140.32,24.39A24.39,24.39,0,1,1,115.93,0,24.39,24.39,0,0,1,140.32,24.39Z"/><path class="cls-3" d="M139.92,19.16c-.65-.53-1.3-1.05-2-1.55a48.15,48.15,0,0,0-6.19-3.91,38.05,38.05,0,0,0-7.4-3,25.49,25.49,0,0,0-6.73-1.07,16.07,16.07,0,0,0-5,.66,10.41,10.41,0,0,0-4.86,3,9.57,9.57,0,0,0-1.94,3.36,13.56,13.56,0,0,0-.69,5.43,22.45,22.45,0,0,0,1.83,7.47,39.16,39.16,0,0,0,5.54,9.21c.35.44.71.87,1.06,1.3l.06,0c-.5-.76-1-1.52-1.49-2.29a29.73,29.73,0,0,1-3.62-8.33,18.37,18.37,0,0,1-.55-6.53,12.62,12.62,0,0,1,1.3-4.5,9.46,9.46,0,0,1,4-3.95,13.08,13.08,0,0,1,4.52-1.55,20.3,20.3,0,0,1,6.82,0A29.37,29.37,0,0,1,133.16,16c1.31.71,2.55,1.5,3.76,2.31.38.25,2,1.49,3.62,2.76A7.82,7.82,0,0,1,139.92,19.16Z"/><path class="cls-3" d="M112.74,45.49a41,41,0,0,1-3.48-4.55,32,32,0,0,1-4.16-9,24.31,24.31,0,0,1-1-6.29,19.81,19.81,0,0,1,.47-4.77,17.3,17.3,0,0,1,2.64-6.1,20.31,20.31,0,0,1,2.48-2.92l-.07,0A17.71,17.71,0,0,0,106,15.34a17.32,17.32,0,0,0-3.83,10.81,22.36,22.36,0,0,0,.53,5.2C103.32,34.27,112,45.67,112.74,45.49Z"/><path d="M117.09,6.33c-2,1.87-4,2.37-4.53,1.12s.58-3.78,2.53-5.64,4-2.37,4.54-1.12S119,4.47,117.09,6.33Z"/><path class="cls-3" d="M95.07,39.38a31.21,31.21,0,0,0,3.83,3.8,8.94,8.94,0,0,1,1.84.5,25.21,25.21,0,0,1-3.68-4.25,12.88,12.88,0,0,1-1.64-3.25,4.4,4.4,0,0,1,.16-3.35A4,4,0,0,1,97.27,31a8.45,8.45,0,0,1,3.75-1.2c.33,0,.67,0,1,0,.06-.18.12-.37.2-.55s.16-.4.26-.6c-.91-.12-1.81-.2-2.72-.23a14,14,0,0,0-4.28.45A5.67,5.67,0,0,0,93,30.15,3.58,3.58,0,0,0,91.93,33a6.72,6.72,0,0,0,.68,2.58A16.41,16.41,0,0,0,95.07,39.38Z"/><path class="cls-2" d="M17.54,74.86l-2.63,3.41H10.22V88H6.16V78.27H0l2.63-3.41Z"/><path class="cls-2" d="M34.7,88h-4V82.92H22.85V88H18.77V74.86h4.08v4.65h7.81V74.86h4Z"/><path class="cls-2" d="M52.44,84.61,49.83,88H37.19V74.86H52.4l-2.63,3.41h-8.5v1.57h10.4l-2.33,3H41.27v1.78Z"/><path class="cls-4" d="M70.13,74.86,67.5,78.27H62.81V88H58.75V78.27H52.59l2.63-3.41Z"/><path class="cls-4" d="M78.68,74.64c3.19,0,5.59.55,7.19,1.63a5.78,5.78,0,0,1,2.41,5.14,5.78,5.78,0,0,1-2.4,5.16q-2.38,1.64-7.2,1.63c-3.21,0-5.62-.54-7.21-1.63a5.79,5.79,0,0,1-2.38-5.16,5.79,5.79,0,0,1,2.39-5.14C73.08,75.19,75.48,74.64,78.68,74.64Zm0,10.15a23.19,23.19,0,0,0,2.59-.13,4.68,4.68,0,0,0,1.72-.5,2.2,2.2,0,0,0,1-1,4.19,4.19,0,0,0,.29-1.72,4.14,4.14,0,0,0-.29-1.71,2.13,2.13,0,0,0-1-1,4.68,4.68,0,0,0-1.72-.5,28,28,0,0,0-5.18,0,4.68,4.68,0,0,0-1.71.5,2.09,2.09,0,0,0-.95,1,4.13,4.13,0,0,0-.3,1.71,4.18,4.18,0,0,0,.3,1.72,2.15,2.15,0,0,0,.95,1,4.68,4.68,0,0,0,1.71.5A23.32,23.32,0,0,0,78.68,84.79Z"/><path class="cls-4" d="M107.66,79.78a4.58,4.58,0,0,1-.43,2A4.14,4.14,0,0,1,106,83.3a6.61,6.61,0,0,1-2,1,9.88,9.88,0,0,1-2.73.35H94.34V88h-4V81.27h11.3a2.28,2.28,0,0,0,1.46-.41,1.34,1.34,0,0,0,.52-1.1,1.3,1.3,0,0,0-.52-1.08,2.35,2.35,0,0,0-1.46-.41H90.3L93,74.86h8.24a9.5,9.5,0,0,1,2.73.36,6.27,6.27,0,0,1,2,1,4.45,4.45,0,0,1,1.26,1.55A4.69,4.69,0,0,1,107.66,79.78Z"/><path class="cls-2" d="M124.53,81.24a2.9,2.9,0,0,1,1.46,1,2.94,2.94,0,0,1,.6,1.92,4.41,4.41,0,0,1-.26,1.52,2.91,2.91,0,0,1-.86,1.21,4.48,4.48,0,0,1-1.64.8,9.36,9.36,0,0,1-2.58.29H109.72V80h11.61a1.54,1.54,0,0,0,.79-.19.71.71,0,0,0,.35-.69.69.69,0,0,0-.35-.67,1.73,1.73,0,0,0-.79-.18H109.72l2.74-3.41h8.69a9.21,9.21,0,0,1,2.13.23,4.94,4.94,0,0,1,1.63.68,3.23,3.23,0,0,1,1,1.14,3.66,3.66,0,0,1,.21,2.62,3.1,3.1,0,0,1-.41.79,2.34,2.34,0,0,1-.56.57A3,3,0,0,1,124.53,81.24ZM113.8,82.81v1.8h7.47a1.5,1.5,0,0,0,1-.24.8.8,0,0,0,.3-.68.77.77,0,0,0-.3-.66,1.58,1.58,0,0,0-1-.22Z"/><path class="cls-2" d="M137.81,74.64c3.19,0,5.59.55,7.19,1.63a5.78,5.78,0,0,1,2.4,5.14A5.79,5.79,0,0,1,145,86.57q-2.4,1.64-7.2,1.63t-7.21-1.63a5.79,5.79,0,0,1-2.38-5.16,5.77,5.77,0,0,1,2.39-5.14C132.2,75.19,134.6,74.64,137.81,74.64Zm0,10.15a23.32,23.32,0,0,0,2.59-.13,4.62,4.62,0,0,0,1.71-.5,2.22,2.22,0,0,0,1-1,4.37,4.37,0,0,0,.29-1.72,4.31,4.31,0,0,0-.29-1.71,2.16,2.16,0,0,0-1-1,4.62,4.62,0,0,0-1.71-.5,28,28,0,0,0-5.18,0,4.68,4.68,0,0,0-1.72.5,2.13,2.13,0,0,0-.95,1,4.14,4.14,0,0,0-.29,1.71,4.19,4.19,0,0,0,.29,1.72,2.2,2.2,0,0,0,.95,1,4.68,4.68,0,0,0,1.72.5A23.19,23.19,0,0,0,137.81,84.79Z"/><path class="cls-2" d="M158.64,74.64c3.19,0,5.59.55,7.19,1.63a5.78,5.78,0,0,1,2.41,5.14,5.78,5.78,0,0,1-2.4,5.16q-2.39,1.64-7.2,1.63t-7.21-1.63a5.79,5.79,0,0,1-2.38-5.16,5.79,5.79,0,0,1,2.39-5.14C153,75.19,155.44,74.64,158.64,74.64Zm0,10.15a23.19,23.19,0,0,0,2.59-.13,4.68,4.68,0,0,0,1.72-.5,2.2,2.2,0,0,0,1-1,4.19,4.19,0,0,0,.29-1.72,4.14,4.14,0,0,0-.29-1.71,2.13,2.13,0,0,0-1-1,4.68,4.68,0,0,0-1.72-.5,28,28,0,0,0-5.18,0,4.62,4.62,0,0,0-1.71.5,2.16,2.16,0,0,0-1,1,4.31,4.31,0,0,0-.29,1.71,4.37,4.37,0,0,0,.29,1.72,2.22,2.22,0,0,0,1,1,4.62,4.62,0,0,0,1.71.5A23.32,23.32,0,0,0,158.64,84.79Z"/><path class="cls-2" d="M186.85,88h-6.14l-4-3.45c-.68-.59-1.2-1-1.56-1.37s-.65-.6-.87-.83c0,.31,0,.62,0,.94s0,.63,0,1V88h-4.08V74.86h4.08v3c0,.41,0,.81,0,1.2s0,.76-.06,1.1l.95-.88c.37-.34.86-.77,1.46-1.26l3.79-3.2h5.88l-5,3.77-1.15.86-.89.65-.72.49L178,81l1.38,1c.53.39,1.23.94,2.08,1.63Z"/><path class="cls-2" d="M192.3,88h-4.06V74.86h4.06Z"/><path class="cls-2" d="M210.08,84.61,207.47,88H194.83V74.86H210l-2.63,3.41h-8.5v1.57h10.4l-2.33,3h-8.07v1.78Z"/><path class="cls-2" d="M223.63,80.1a6.35,6.35,0,0,1,3.67.89,3.1,3.1,0,0,1,1.26,2.7,4.89,4.89,0,0,1-.32,1.8,3.2,3.2,0,0,1-1,1.36,5,5,0,0,1-1.75.84,9.65,9.65,0,0,1-2.56.29H210.7l2.61-3.37h9.93a1.94,1.94,0,0,0,1.06-.23,1,1,0,0,0,0-1.46,2.06,2.06,0,0,0-1.06-.21H216.1a7.54,7.54,0,0,1-2.2-.28,4.57,4.57,0,0,1-1.53-.76,3.06,3.06,0,0,1-.9-1.19,3.85,3.85,0,0,1-.3-1.54,4.2,4.2,0,0,1,.33-1.68,3.18,3.18,0,0,1,1-1.28,4.83,4.83,0,0,1,1.75-.83,10,10,0,0,1,2.55-.29h11.4l-2.61,3.41h-9.1a2.19,2.19,0,0,0-1.05.2.74.74,0,0,0-.34.71.75.75,0,0,0,.34.71,2.07,2.07,0,0,0,1.05.21Z"/><path class="cls-4" d="M142.51,98.17l.92-.08a2.13,2.13,0,0,0,.31.91,1.68,1.68,0,0,0,.75.58,2.79,2.79,0,0,0,1.14.22,2.59,2.59,0,0,0,1-.17,1.31,1.31,0,0,0,.64-.46,1,1,0,0,0,.21-.63,1,1,0,0,0-.2-.62,1.5,1.5,0,0,0-.67-.43,13.21,13.21,0,0,0-1.33-.37,6.81,6.81,0,0,1-1.43-.46,2.05,2.05,0,0,1-.8-.7,1.7,1.7,0,0,1-.26-.92,1.88,1.88,0,0,1,.32-1.05,2,2,0,0,1,.93-.75,3.56,3.56,0,0,1,1.37-.25,3.88,3.88,0,0,1,1.46.26,2.07,2.07,0,0,1,1,.79,2.22,2.22,0,0,1,.37,1.17l-1,.07a1.51,1.51,0,0,0-.51-1.06,2,2,0,0,0-1.3-.36,2.05,2.05,0,0,0-1.3.32,1,1,0,0,0-.41.79.85.85,0,0,0,.29.66,3.92,3.92,0,0,0,1.48.53,9.29,9.29,0,0,1,1.65.48,2.28,2.28,0,0,1,1,.76,1.81,1.81,0,0,1,.31,1.06,2,2,0,0,1-.34,1.12,2.19,2.19,0,0,1-1,.81,3.29,3.29,0,0,1-1.43.29,4.17,4.17,0,0,1-1.69-.29,2.37,2.37,0,0,1-1.08-.89A2.53,2.53,0,0,1,142.51,98.17Z"/><path class="cls-4" d="M149.94,100.56V93.11h1v7.45Z"/><path class="cls-4" d="M152.64,100.56V93.11h1.48l1.76,5.27.36,1.11q.12-.4.39-1.2l1.78-5.18h1.33v7.45h-1V94.33l-2.16,6.23h-.89l-2.16-6.34v6.34Z"/><path class="cls-4" d="M161.33,100.56V93.11h2.81a6.34,6.34,0,0,1,1.13.08,2.29,2.29,0,0,1,.92.34,1.85,1.85,0,0,1,.59.72,2.31,2.31,0,0,1,.23,1,2.27,2.27,0,0,1-.6,1.6,2.92,2.92,0,0,1-2.19.66h-1.91v3Zm1-3.91h1.93a2.06,2.06,0,0,0,1.35-.35,1.26,1.26,0,0,0,.4-1,1.4,1.4,0,0,0-.23-.8,1.14,1.14,0,0,0-.62-.44,3.86,3.86,0,0,0-.92-.07h-1.91Z"/><path class="cls-4" d="M168.22,100.56V93.11h1v6.57h3.66v.88Z"/><path class="cls-4" d="M175.37,100.56V97.4l-2.87-4.29h1.2l1.47,2.25q.41.63.75,1.26c.23-.39.5-.83.82-1.32l1.44-2.19h1.15l-3,4.29v3.16Z"/><path class="cls-4" d="M184.62,100.56V94h-2.46v-.88h5.91V94H185.6v6.57Z"/><path class="cls-4" d="M189.11,100.56V93.11h1v3.06H194V93.11h1v7.45h-1V97.05h-3.87v3.51Z"/><path class="cls-4" d="M196.6,100.56V93.11H202V94h-4.4v2.28h4.12v.88h-4.12v2.53h4.57v.88Z"/><path class="cls-4" d="M208.12,100.56V94h-2.46v-.88h5.9V94H209.1v6.57Z"/><path class="cls-4" d="M212.08,96.93a4.07,4.07,0,0,1,1-2.9,3.38,3.38,0,0,1,2.57-1,3.64,3.64,0,0,1,1.86.49,3.24,3.24,0,0,1,1.26,1.38,4.81,4.81,0,0,1,0,4,3.09,3.09,0,0,1-1.3,1.35,3.66,3.66,0,0,1-1.81.46,3.47,3.47,0,0,1-1.87-.5,3.26,3.26,0,0,1-1.26-1.39A4.23,4.23,0,0,1,212.08,96.93Zm1,0a3,3,0,0,0,.72,2.12,2.42,2.42,0,0,0,1.82.77,2.38,2.38,0,0,0,1.83-.78,3.15,3.15,0,0,0,.72-2.22,4,4,0,0,0-.31-1.59,2.31,2.31,0,0,0-.9-1,2.39,2.39,0,0,0-1.32-.37,2.55,2.55,0,0,0-1.81.72A3.22,3.22,0,0,0,213.1,97Z"/><path class="cls-4" d="M220.47,100.56V93.11h2.81a6.34,6.34,0,0,1,1.13.08,2.24,2.24,0,0,1,.92.34,1.79,1.79,0,0,1,.6.72,2.31,2.31,0,0,1,.22,1,2.27,2.27,0,0,1-.6,1.6,2.88,2.88,0,0,1-2.18.66h-1.91v3Zm1-3.91h1.92a2.1,2.1,0,0,0,1.36-.35,1.29,1.29,0,0,0,.4-1,1.33,1.33,0,0,0-.24-.8,1.07,1.07,0,0,0-.62-.44,3.81,3.81,0,0,0-.92-.07h-1.9Z"/><path class="cls-4" d="M227.78,98.71l-.28-3.95V93.11h1.13v1.65l-.26,3.95Zm-.24,1.85v-1h1.05v1Z"/></g></g></svg>