<svg width="406" height="143" viewBox="0 0 406 143" fill="none" xmlns="http://www.w3.org/2000/svg">
<g filter="url(#filter0_d_436_98)">
<path d="M44.0566 41.58C46.0032 33.5277 54.297 27 62.5813 27H363C371.284 27 376.422 33.5277 374.475 41.58L361.943 93.42C359.997 101.472 351.703 108 343.419 108H43C34.7157 108 29.578 101.472 31.5246 93.42L44.0566 41.58Z" fill="#FF0935"/>
</g>
<path d="M119.968 67.7468H124.888V78.9068C123.448 80.0535 121.768 80.9335 119.848 81.5468C117.928 82.1601 115.954 82.4668 113.928 82.4668C111.074 82.4668 108.501 81.8535 106.208 80.6268C103.914 79.3735 102.114 77.6535 100.808 75.4668C99.5009 73.2801 98.8476 70.8135 98.8476 68.0668C98.8476 65.3201 99.5009 62.8535 100.808 60.6668C102.114 58.4801 103.914 56.7735 106.208 55.5468C108.528 54.2935 111.128 53.6668 114.008 53.6668C116.354 53.6668 118.488 54.0535 120.408 54.8268C122.328 55.6001 123.941 56.7335 125.248 58.2268L121.968 61.4268C119.834 59.2935 117.261 58.2268 114.248 58.2268C112.274 58.2268 110.514 58.6401 108.968 59.4668C107.448 60.2935 106.248 61.4535 105.368 62.9468C104.514 64.4401 104.088 66.1468 104.088 68.0668C104.088 69.9335 104.514 71.6135 105.368 73.1068C106.248 74.6001 107.448 75.7735 108.968 76.6268C110.514 77.4801 112.261 77.9068 114.208 77.9068C116.394 77.9068 118.314 77.4268 119.968 76.4668V67.7468ZM151.346 71.5068C151.346 71.8535 151.319 72.3468 151.266 72.9868H134.506C134.799 74.5601 135.559 75.8135 136.786 76.7468C138.039 77.6535 139.586 78.1068 141.426 78.1068C143.773 78.1068 145.706 77.3335 147.226 75.7868L149.906 78.8668C148.946 80.0135 147.733 80.8801 146.266 81.4668C144.799 82.0535 143.146 82.3468 141.306 82.3468C138.959 82.3468 136.893 81.8801 135.106 80.9468C133.319 80.0135 131.933 78.7201 130.946 77.0668C129.986 75.3868 129.506 73.4935 129.506 71.3868C129.506 69.3068 129.973 67.4401 130.906 65.7868C131.866 64.1068 133.186 62.8001 134.866 61.8668C136.546 60.9335 138.439 60.4668 140.546 60.4668C142.626 60.4668 144.479 60.9335 146.106 61.8668C147.759 62.7735 149.039 64.0668 149.946 65.7468C150.879 67.4001 151.346 69.3201 151.346 71.5068ZM140.546 64.4668C138.946 64.4668 137.586 64.9468 136.466 65.9068C135.373 66.8401 134.706 68.0935 134.466 69.6668H146.586C146.373 68.1201 145.719 66.8668 144.626 65.9068C143.533 64.9468 142.173 64.4668 140.546 64.4668ZM168.989 80.9068C168.402 81.3868 167.682 81.7468 166.829 81.9868C166.002 82.2268 165.122 82.3468 164.189 82.3468C161.842 82.3468 160.029 81.7335 158.749 80.5068C157.469 79.2801 156.829 77.4935 156.829 75.1468V64.8668H153.309V60.8668H156.829V55.9868H161.829V60.8668H167.549V64.8668H161.829V75.0268C161.829 76.0668 162.082 76.8668 162.589 77.4268C163.095 77.9601 163.829 78.2268 164.789 78.2268C165.909 78.2268 166.842 77.9335 167.589 77.3468L168.989 80.9068ZM195.997 60.4668C198.077 60.4668 199.93 60.9201 201.557 61.8268C203.21 62.7335 204.503 64.0135 205.437 65.6668C206.37 67.3201 206.837 69.2268 206.837 71.3868C206.837 73.5468 206.37 75.4668 205.437 77.1468C204.503 78.8001 203.21 80.0801 201.557 80.9868C199.93 81.8935 198.077 82.3468 195.997 82.3468C194.53 82.3468 193.183 82.0935 191.957 81.5868C190.757 81.0801 189.743 80.3201 188.917 79.3068V82.0668H184.157V52.3868H189.157V63.3068C190.01 62.3735 191.01 61.6668 192.157 61.1868C193.33 60.7068 194.61 60.4668 195.997 60.4668ZM195.437 78.0668C197.277 78.0668 198.783 77.4535 199.957 76.2268C201.157 75.0001 201.757 73.3868 201.757 71.3868C201.757 69.3868 201.157 67.7735 199.957 66.5468C198.783 65.3201 197.277 64.7068 195.437 64.7068C194.237 64.7068 193.157 64.9868 192.197 65.5468C191.237 66.0801 190.477 66.8535 189.917 67.8668C189.357 68.8801 189.077 70.0535 189.077 71.3868C189.077 72.7201 189.357 73.8935 189.917 74.9068C190.477 75.9201 191.237 76.7068 192.197 77.2668C193.157 77.8001 194.237 78.0668 195.437 78.0668ZM221.178 82.3468C219.018 82.3468 217.072 81.8801 215.338 80.9468C213.605 80.0135 212.245 78.7201 211.258 77.0668C210.298 75.3868 209.818 73.4935 209.818 71.3868C209.818 69.2801 210.298 67.4001 211.258 65.7468C212.245 64.0935 213.605 62.8001 215.338 61.8668C217.072 60.9335 219.018 60.4668 221.178 60.4668C223.365 60.4668 225.325 60.9335 227.058 61.8668C228.792 62.8001 230.138 64.0935 231.098 65.7468C232.085 67.4001 232.578 69.2801 232.578 71.3868C232.578 73.4935 232.085 75.3868 231.098 77.0668C230.138 78.7201 228.792 80.0135 227.058 80.9468C225.325 81.8801 223.365 82.3468 221.178 82.3468ZM221.178 78.0668C223.018 78.0668 224.538 77.4535 225.738 76.2268C226.938 75.0001 227.538 73.3868 227.538 71.3868C227.538 69.3868 226.938 67.7735 225.738 66.5468C224.538 65.3201 223.018 64.7068 221.178 64.7068C219.338 64.7068 217.818 65.3201 216.618 66.5468C215.445 67.7735 214.858 69.3868 214.858 71.3868C214.858 73.3868 215.445 75.0001 216.618 76.2268C217.818 77.4535 219.338 78.0668 221.178 78.0668ZM249.48 60.4668C252.173 60.4668 254.333 61.2535 255.96 62.8268C257.586 64.4001 258.4 66.7335 258.4 69.8268V82.0668H253.4V70.4668C253.4 68.6001 252.96 67.2001 252.08 66.2668C251.2 65.3068 249.946 64.8268 248.32 64.8268C246.48 64.8268 245.026 65.3868 243.96 66.5068C242.893 67.6001 242.36 69.1868 242.36 71.2668V82.0668H237.36V60.7068H242.12V63.4668C242.946 62.4801 243.986 61.7335 245.24 61.2268C246.493 60.7201 247.906 60.4668 249.48 60.4668ZM285.423 60.7068V82.0668H280.663V79.3468C279.863 80.3068 278.863 81.0535 277.663 81.5868C276.463 82.0935 275.169 82.3468 273.783 82.3468C270.929 82.3468 268.676 81.5601 267.023 79.9868C265.396 78.3868 264.583 76.0268 264.583 72.9068V60.7068H269.583V72.2268C269.583 74.1468 270.009 75.5868 270.863 76.5468C271.743 77.4801 272.983 77.9468 274.583 77.9468C276.369 77.9468 277.783 77.4001 278.823 76.3068C279.889 75.1868 280.423 73.5868 280.423 71.5068V60.7068H285.423ZM298.569 82.3468C296.836 82.3468 295.142 82.1201 293.489 81.6668C291.836 81.2135 290.516 80.6401 289.529 79.9468L291.449 76.1468C292.409 76.7868 293.556 77.3068 294.889 77.7068C296.249 78.0801 297.582 78.2668 298.889 78.2668C301.876 78.2668 303.369 77.4801 303.369 75.9068C303.369 75.1601 302.982 74.6401 302.209 74.3468C301.462 74.0535 300.249 73.7735 298.569 73.5068C296.809 73.2401 295.369 72.9335 294.249 72.5868C293.156 72.2401 292.196 71.6401 291.369 70.7868C290.569 69.9068 290.169 68.6935 290.169 67.1468C290.169 65.1201 291.009 63.5068 292.689 62.3068C294.396 61.0801 296.689 60.4668 299.569 60.4668C301.036 60.4668 302.502 60.6401 303.969 60.9868C305.436 61.3068 306.636 61.7468 307.569 62.3068L305.649 66.1068C303.836 65.0401 301.796 64.5068 299.529 64.5068C298.062 64.5068 296.942 64.7335 296.169 65.1868C295.422 65.6135 295.049 66.1868 295.049 66.9068C295.049 67.7068 295.449 68.2801 296.249 68.6268C297.076 68.9468 298.342 69.2535 300.049 69.5468C301.756 69.8135 303.156 70.1201 304.249 70.4668C305.342 70.8135 306.276 71.4001 307.049 72.2268C307.849 73.0535 308.249 74.2268 308.249 75.7468C308.249 77.7468 307.382 79.3468 305.649 80.5468C303.916 81.7468 301.556 82.3468 298.569 82.3468Z" fill="white"/>
<defs>
<filter id="filter0_d_436_98" x="0.112625" y="0" width="405.775" height="143" filterUnits="userSpaceOnUse" color-interpolation-filters="sRGB">
<feFlood flood-opacity="0" result="BackgroundImageFix"/>
<feColorMatrix in="SourceAlpha" type="matrix" values="0 0 0 0 0 0 0 0 0 0 0 0 0 0 0 0 0 0 127 0" result="hardAlpha"/>
<feOffset dy="4"/>
<feGaussianBlur stdDeviation="15.5"/>
<feComposite in2="hardAlpha" operator="out"/>
<feColorMatrix type="matrix" values="0 0 0 0 1 0 0 0 0 0 0 0 0 0 0.24 0 0 0 0.4 0"/>
<feBlend mode="normal" in2="BackgroundImageFix" result="effect1_dropShadow_436_98"/>
<feBlend mode="normal" in="SourceGraphic" in2="effect1_dropShadow_436_98" result="shape"/>
</filter>
</defs>
</svg>
