<svg width="530" height="64" viewBox="0 0 530 64" fill="none" xmlns="http://www.w3.org/2000/svg">
<path d="M307.053 13.3526C306.95 16.9257 305.51 20.3166 303.039 22.8061C300.567 25.2956 297.259 26.688 293.816 26.688C290.373 26.688 287.065 25.2956 284.593 22.8061C282.122 20.3166 280.682 16.9257 280.579 13.3526C280.682 9.77941 282.122 6.38854 284.593 3.89902C287.065 1.40949 290.373 0.0170898 293.816 0.0170898C297.259 0.0170898 300.567 1.40949 303.039 3.89902C305.51 6.38854 306.95 9.77941 307.053 13.3526Z" fill="#1B9DD9"/>
<path d="M307.053 49.8564C307.129 52.5915 306.417 55.2879 305.008 57.6004C303.599 59.913 301.558 61.7366 299.145 62.8378C296.732 63.939 294.058 64.2676 291.464 63.7817C288.87 63.2958 286.475 62.0175 284.585 60.1102C282.695 58.203 281.396 55.7537 280.855 53.0758C280.314 50.398 280.555 47.6133 281.547 45.0782C282.539 42.5432 284.237 40.3731 286.423 38.8457C288.61 37.3184 291.186 36.5032 293.822 36.5045C295.539 36.4667 297.245 36.7835 298.843 37.4363C300.44 38.0892 301.897 39.0651 303.128 40.3074C304.359 41.5497 305.34 43.0336 306.014 44.6729C306.687 46.3122 307.041 48.0741 307.053 49.8564Z" fill="#E6352B"/>
<path d="M351.633 1.96752H326.72V61.2405H342.979V44.3619H350.918C365.472 44.3619 376.068 36.9374 376.068 22.9667C376.068 9.61485 366.425 1.96752 351.633 1.96752ZM350.5 31.406H342.753V15.703H350.31C356.174 15.703 359.583 18.4501 359.583 23.5483C359.798 28.4609 356.21 31.406 350.536 31.406H350.5ZM124.788 46.5151H93.4032V37.123H121.379V24.1423H93.4032V15.109H124.395V1.23743H77.4784V60.4609H124.752L124.788 46.5151ZM33.8402 27.2854H31.3847L22.6475 1.23743H0V60.4609H16.6877V28.8569H18.3922L28.3571 58.1593H36.7009L46.7254 28.9188H48.43V60.6342H64.8792V1.37355H42.5416L33.8402 27.2854ZM398.942 1.96752L373.982 61.4385H390.968L395.128 50.8337H417.621L421.781 61.4385H439.171L414.45 1.96752H398.942ZM399.884 38.0758L405.748 23.3627H407.262L412.936 38.0758H399.884ZM169.404 37.8778H175.84L182.265 38.0758C181.734 39.4458 180.966 40.7038 180 41.7881C178.468 43.5422 176.601 44.9456 174.517 45.9087V45.9087C172.049 47.1717 169.316 47.7757 166.567 47.6659C157.305 47.6659 150.69 40.7981 150.69 31.1833C150.69 21.9644 157.114 14.7007 165.625 14.7007C171.299 14.7007 175.459 16.6558 179.81 20.1949L189.262 8.66203C183.016 3.14308 175.84 0 165.685 0C147.531 0 134.3 13.5375 134.3 30.8121C134.3 48.8786 147.912 61.6365 166.066 61.6365C175.29 61.7308 184.253 58.4641 191.396 52.4053V25.9118H169.463L169.404 37.8778ZM223.293 1.23743L198.524 60.4609H215.545L219.705 49.8561H242.197L246.357 60.4609H263.76L238.991 1.23743H223.293ZM224.234 37.3581L229.908 22.8306H231.613L237.287 37.3581H224.234ZM513.741 1.96752V61.2405H530V1.96752H513.741ZM499.342 22.3728C499.342 16.297 497.638 11.7804 494.229 8.2413C490.26 4.31864 484.216 1.96752 475.157 1.96752H447.742V61.2405H464V43.1864H470.997L482.75 61.2405H501.464L487.423 40.6249C494.67 37.4942 499.342 31.406 499.342 22.3728ZM474.406 30.4285H463.798V16.0866H474.406C479.889 16.0866 483.096 18.4377 483.096 23.1524C483.072 27.6814 480.056 30.4285 474.406 30.4285Z" fill="white"/>
</svg>
