<svg width="126" height="58" viewBox="0 0 126 58" fill="none" xmlns="http://www.w3.org/2000/svg">
<path d="M81.298 22.511H59.2844C58.8485 22.511 58.6306 22.8555 58.6306 23.2001V25.0377C58.6306 25.4971 58.9575 25.7268 59.2844 25.7268H75.7401V35.3743C75.3042 34.6852 74.7593 33.9961 74.2144 33.307C72.2528 31.2397 70.1823 30.206 68.0027 30.206C66.259 30.206 64.8423 31.1248 63.6436 32.7328C62.6628 34.111 62.1179 35.7189 62.1179 37.212C62.1179 38.705 62.3358 40.6575 63.4256 42.4951C64.7333 44.6773 66.9129 45.3664 68.8745 45.3664C71.381 45.3664 73.4516 43.5288 73.4516 41.1169C73.4516 39.7387 72.7977 38.5902 71.599 37.7862L70.4002 37.0971V39.1644C70.2912 39.7387 69.4194 40.5426 68.4386 40.5426C67.5668 40.5426 66.8039 40.1981 66.259 39.6238C65.9321 39.2793 65.7141 38.5902 65.8231 38.1308C65.8231 37.4417 66.0411 36.8674 66.477 36.2931C67.0219 35.604 67.5668 35.2595 68.4386 35.2595C70.6182 35.2595 72.4708 36.2931 73.9965 38.5902C75.1953 40.5426 75.8491 42.3803 75.8491 44.4476V49.2713L79.1185 51.3387C79.2274 51.4535 79.3364 51.4535 79.4454 51.4535C79.8813 51.4535 80.0993 51.109 80.0993 50.7644V25.8417H81.407C81.8429 25.8417 82.0609 25.4971 82.0609 25.1526V23.3149C82.0609 22.8555 81.7339 22.511 81.298 22.511Z" fill="white"/>
<path d="M125.325 22.5108H97.4267C96.9908 22.5108 96.7728 22.8553 96.7728 23.1999V26.4157C94.0483 23.4296 91.6508 21.9365 89.4713 21.9365C87.4007 21.9365 85.657 22.3959 84.1313 23.6593C82.7146 24.8078 81.8428 26.3009 81.8428 28.0236C81.8428 33.192 87.2917 33.0771 88.7084 32.388C88.9264 32.2731 89.2533 32.0434 89.5802 32.0434C90.67 32.0434 91.1059 32.9623 91.1059 33.7662C91.1059 34.9147 89.4713 35.9484 87.5096 35.9484C86.4199 35.9484 85.766 35.6038 85.3301 34.9147L84.4583 33.5365L83.9134 35.1444C83.8044 35.489 83.5864 35.9484 83.5864 36.5226C83.5864 37.6712 84.1313 38.8197 85.2211 39.8533C86.2019 40.7721 87.4007 41.2315 88.7084 41.2315C90.779 41.2315 92.5226 40.4276 93.6124 38.8197C94.5932 37.5563 95.0291 36.0632 95.0291 34.3405C95.0291 33.4217 94.7022 32.388 93.9394 31.2395C93.0675 29.8613 91.9778 29.1722 90.779 29.1722C90.3431 29.1722 89.7982 29.287 89.2533 29.5167C89.0353 29.6316 88.5994 29.7464 88.4904 29.7464C88.2725 29.7464 87.9456 29.6316 87.7276 29.287C87.5096 29.0573 87.2917 28.7128 87.2917 28.1385C87.2917 26.8751 88.3815 25.6118 90.3431 25.6118H90.4521C91.7598 25.6118 93.0675 26.3009 94.2663 27.5642C95.2471 28.5979 96.0099 29.6316 96.6638 30.7801V49.0414L99.9332 51.1088C100.042 51.2236 100.151 51.2236 100.26 51.2236C100.696 51.2236 100.914 50.8791 100.914 50.5345V25.8415H105.927V41.8058L109.85 43.5286H110.068C110.395 43.5286 110.722 43.2989 110.722 42.8395V42.7246C111.376 38.0157 113.337 34.7999 116.607 32.8474V33.7662C116.607 34.4553 116.607 36.1781 116.716 37.0969C116.716 37.6712 116.716 38.0157 116.825 38.3603C116.825 40.1979 117.043 42.9543 117.588 45.0216C118.677 48.9266 120.53 49.8454 121.838 49.8454H121.947C122.71 49.8454 123.363 49.6157 123.799 49.1563C124.017 48.9266 124.344 48.4672 124.344 47.6632C124.344 46.9741 124.235 46.3999 124.017 45.9404L123.69 45.3662L123.037 45.481C122.383 45.7107 122.056 45.7107 122.056 45.5959H121.947C121.729 45.5959 121.729 45.5959 121.62 45.481C121.402 45.3662 120.966 45.0216 120.639 43.7583C120.421 42.8395 120.312 41.5761 120.312 40.887C120.312 35.7187 121.293 31.8137 122.928 31.0098H123.037C123.255 30.8949 123.472 30.6652 123.472 30.3207C123.472 30.2058 123.472 30.091 123.363 29.9761V29.8613C122.601 28.2533 120.966 27.1048 118.786 26.5306H118.35C116.607 26.8751 114.536 28.1385 111.921 30.4355C111.267 31.0098 110.613 31.584 110.068 32.1583V25.8415H125.325C125.761 25.8415 125.979 25.4969 125.979 25.1524V23.3147C126.088 22.8553 125.761 22.5108 125.325 22.5108Z" fill="white"/>
<path d="M51.4377 31.01C51.4377 31.814 51.4377 32.5031 51.3288 33.1922C51.1108 36.408 50.348 39.3941 49.1492 42.1506C48.7133 43.2991 48.1684 44.3327 47.5145 45.3664C42.9374 52.9466 34.873 58.0001 25.7189 58.0001C21.7957 58.0001 18.0904 57.0812 14.821 55.4733C6.10278 51.2238 0 41.806 0 31.01C0 20.3288 5.88483 11.1407 14.2762 6.77637C13.6223 7.69518 12.9684 8.61399 12.4235 9.64765C12.4235 9.7625 12.3145 9.7625 12.3145 9.87735C11.9876 10.2219 11.6607 10.4516 11.3337 10.7962C10.8978 11.1407 10.5709 11.6001 10.135 11.9447L9.91702 12.1744L9.69906 12.4041C9.59009 12.5189 9.48111 12.7486 9.26315 12.8635C9.0452 13.208 8.71826 13.5526 8.5003 13.8971C7.41052 15.3902 6.5387 16.9981 5.88483 18.7209C5.77585 18.8358 5.77585 19.0655 5.66687 19.1803C5.55789 19.41 5.55789 19.6397 5.44891 19.7546C5.44891 19.8694 5.33993 19.9843 5.33993 20.0991C5.23096 20.4437 5.12198 20.6734 5.013 21.0179C4.90402 21.2476 4.90402 21.4773 4.79504 21.5922C4.79504 21.707 4.68607 21.8219 4.68607 21.9367C4.68607 22.1664 4.57709 22.3961 4.57709 22.6258L4.25015 24.6932C4.25015 24.9229 4.25015 25.0377 4.14117 25.2674V28.0239C4.14117 35.3743 7.30154 42.0357 12.4235 46.2852C16.3467 49.6159 21.2508 51.6832 26.5907 51.6832C31.4947 51.6832 35.9628 50.0753 39.6681 47.204C42.3925 45.1367 44.5721 42.4951 46.2068 39.3941C46.4247 38.9347 46.6427 38.5902 46.8607 38.1308C48.1684 35.2595 48.9312 32.1585 48.9312 28.8278V28.0239C48.9312 27.2199 48.9312 26.5308 48.8223 25.7268L48.9312 25.8417C49.2582 26.1862 49.5851 26.4159 49.912 26.7605C50.239 26.1862 50.5659 25.7268 50.8928 25.1526C51.1108 26.1862 51.2198 27.2199 51.3288 28.3684C51.4377 29.4021 51.4377 30.206 51.4377 31.01Z" fill="white"/>
<path d="M28.7705 9.30296L23.9754 0C16.02 3.79009 10.5711 12.1742 10.5711 21.9366C10.5711 26.8752 11.9878 31.4693 14.3853 35.2593C14.1674 33.996 14.1674 32.7326 14.1674 31.3544C14.2764 21.3623 20.2702 12.8633 28.7705 9.30296Z" fill="white"/>
<path d="M32.5846 13.8969C34.5462 13.3226 36.7257 13.0929 38.7963 13.0929C40.1041 13.0929 41.5208 13.2078 42.7195 13.4375L42.6106 9.30283L42.3926 1.03354C41.5208 0.918684 40.54 0.803833 39.5592 0.803833C35.2 0.803833 31.1678 2.2969 27.8985 4.70878L30.514 9.76224C25.8279 11.485 22.0137 14.9305 19.6162 19.4097C18.4174 21.5919 17.5456 24.1186 17.2186 26.7602C17.8725 25.382 18.6353 24.1187 19.5072 22.9701C22.6675 18.6058 27.2446 15.2751 32.5846 13.8969Z" fill="white"/>
<path d="M44.0273 9.18811L44.2452 15.0455C42.3926 14.4713 40.54 14.1267 38.4694 14.1267C34.6551 14.1267 31.0589 15.2752 27.8985 17.2277C23.9753 19.7544 20.9239 23.7742 19.3982 28.4831C20.9239 26.301 22.7765 24.3485 24.9561 22.8554C28.1165 20.6732 31.9307 19.4099 35.9629 19.4099C39.0143 19.4099 41.8477 20.099 44.4632 21.3623C46.4248 22.2812 48.1685 23.5445 49.6941 25.1524L52.7455 20.3287L56.6688 14.0119C53.1815 11.0257 48.8223 9.18811 44.0273 9.18811Z" fill="white"/>
<path d="M48.9314 28.2536V29.0575C48.9314 33.8813 47.0788 37.9011 46.8608 38.3605C46.6429 38.8199 46.4249 39.1644 46.207 39.6238C44.5723 42.7248 42.3927 45.3664 39.6683 47.4337C35.963 50.1902 31.4949 51.9129 26.5909 51.9129C21.2509 51.9129 16.2379 49.9605 12.4237 46.5149C7.4107 42.1506 4.14136 35.604 4.14136 28.2536V25.4971C4.14136 25.2674 4.14136 25.1526 4.25034 24.9229L4.57727 22.8556C4.57727 22.6258 4.68625 22.3961 4.68625 22.1664C4.68625 22.0516 4.79523 21.9367 4.79523 21.8219C4.9042 21.5922 4.90421 21.3625 5.01318 21.2476C5.12216 20.9031 5.23114 20.5585 5.34012 20.3288C5.34012 20.214 5.4491 20.0991 5.4491 19.9843C5.55807 19.7546 5.55807 19.5249 5.66705 19.41C5.77603 19.2952 5.77603 19.0655 5.88501 18.9506C6.53888 17.2278 7.51968 15.6199 8.50049 14.1269C8.71844 13.7823 9.04538 13.4377 9.26334 13.0932C9.37231 12.9783 9.48129 12.7486 9.69925 12.6338C9.80823 12.5189 9.80823 12.4041 9.91721 12.4041C10.0262 12.2892 10.0262 12.1744 10.1352 12.1744C10.4621 11.715 10.898 11.3704 11.3339 11.0259C11.6609 10.6813 11.9878 10.4516 12.3147 10.1071C12.3147 10.2219 12.2057 10.2219 12.2057 10.3368C12.2057 10.4516 12.0968 10.5665 12.0968 10.5665C10.789 13.3229 9.91721 16.6536 9.59027 20.0991C9.48129 21.0179 9.48129 21.9367 9.48129 22.9704C9.48129 35.3743 16.3469 45.3664 24.8472 45.3664H25.7191C26.9178 45.3664 28.1166 45.1367 29.3153 44.907C35.0912 43.2991 39.3413 37.6714 39.3413 31.1248V30.7803C39.2324 26.8753 37.7067 23.315 35.2002 20.9031C36.9438 20.9031 38.6875 21.2476 40.3221 21.707C43.4825 22.511 46.3159 24.1189 48.8224 26.1862L48.9314 26.3011C48.8224 26.7605 48.9314 27.5645 48.9314 28.2536Z" fill="white"/>
<path d="M48.9312 28.2535V29.0575C48.9312 34.1109 46.7516 38.4753 46.7516 38.4753C46.5337 38.9347 46.3157 39.2792 46.0977 39.7386C44.4631 42.8396 42.1745 45.4812 39.4501 47.5485C35.6358 50.5346 31.0587 52.0277 26.2637 52.0277C21.0327 52.0277 16.0197 50.0752 11.9875 46.6297C6.75659 42.1505 3.7052 35.3743 3.7052 28.2535C3.7052 21.1327 6.75659 14.3565 11.9875 9.87729L12.2055 9.64758C12.2055 9.76243 12.0965 9.76243 12.0965 9.87729C12.0965 9.99214 11.9875 9.99214 11.9875 10.107C6.86557 14.5862 3.92316 21.1327 3.92316 28.2535C3.92316 35.3743 6.86557 41.9208 12.0965 46.5149C16.0197 49.9604 21.1417 51.798 26.2637 51.798C30.9498 51.798 35.5268 50.3049 39.3411 47.3188C42.0655 45.2515 44.2451 42.6099 45.8798 39.5089C46.0977 39.0495 46.3157 38.705 46.4247 38.2456C46.4247 38.2456 48.6042 33.9961 48.6042 28.9426V28.1386C48.6042 27.3347 48.6042 26.6456 48.4953 25.8416V25.7268L48.6042 25.8416L48.7132 25.9565C48.9312 26.8753 48.9312 27.5644 48.9312 28.2535Z" fill="white"/>
</svg>
