<svg width="126" height="58" viewBox="0 0 126 58" fill="none" xmlns="http://www.w3.org/2000/svg">
<path d="M114.052 31.9381L87.0087 27.6882L90.5937 43.8491L114.052 31.9381Z" fill="white"/>
<path d="M114.052 31.938L93.6738 3.54395L87.0137 27.6932L114.052 31.938Z" fill="white"/>
<path d="M86.3813 27.3661L65.0295 0L92.9904 3.3498L86.3813 27.3661Z" fill="white"/>
<path d="M76.6569 15.9307L64.8004 4.72546H67.9213L76.6569 15.9307Z" fill="white"/>
<path d="M119.82 18.1348L114.802 31.7846L106.668 20.5026L119.82 18.1348Z" fill="white"/>
<path d="M93.7507 43.0309L113.44 35.0988L114.266 32.5775L93.7507 43.0309Z" fill="white"/>
<path d="M78.003 58.0002L86.4377 28.3276L90.7162 47.6337L78.003 58.0002Z" fill="white"/>
<path d="M120.605 18.2423L118.534 23.8782L126 23.7554L120.605 18.2423Z" fill="white"/>
<path d="M0 20.5027C0.362069 20.5334 0.729237 20.5999 1.1168 20.5999C1.50437 20.5999 1.82054 20.5334 2.23361 20.5027V32.5057C3.41161 30.4958 4.89558 29.1712 7.07819 29.1712C11.0253 29.1712 12.7183 33.0887 12.7183 36.6891C12.7183 41.0004 10.4235 45.1275 6.39995 45.1275C5.59438 45.1453 4.79932 44.9416 4.10089 44.5387C3.40245 44.1357 2.82725 43.5488 2.43759 42.8415C1.76445 43.4347 1.1678 44.1456 0.530354 44.79H0.0203982L0 20.5027ZM2.18261 38.1569C2.18261 41.655 3.66149 44.0945 6.09398 44.0945C9.25061 44.0945 10.2654 39.8395 10.2654 36.8221C10.2654 33.3189 9.11292 30.5623 6.37955 30.5316C3.18723 30.5061 2.18261 34.2957 2.18261 38.162" fill="white"/>
<path d="M23.0144 28.2664L20.638 31.3349C22.8716 34.608 25.1868 37.8146 27.4306 41.1286L29.6948 44.7085V44.8875C29.1389 44.8517 28.6341 44.7801 28.1649 44.7801C27.6958 44.7801 27.1042 44.8517 26.6044 44.8875C25.9874 43.7419 25.3755 42.6833 24.6768 41.6451L18.5573 32.5674C18.4196 32.4242 18.0882 32.3117 18.0882 32.46V44.8875C17.6394 44.8517 17.2467 44.7801 16.8592 44.7801C16.4716 44.7801 16.0229 44.8517 15.6302 44.8875V20.503C16.0229 20.5337 16.4461 20.6104 16.8592 20.6104C17.2722 20.6104 17.6394 20.5337 18.0882 20.503V31.5088C18.0882 31.7236 18.5063 31.5804 18.7817 31.294C19.3129 30.7417 19.8102 30.1576 20.2708 29.5449L27.1501 20.4928C27.5122 20.5235 27.8742 20.6002 28.2669 20.6002C28.6596 20.6002 28.9604 20.5235 29.3582 20.4928L23.0144 28.2664Z" fill="white"/>
<path d="M41.5204 42.141C41.5204 43.4093 41.4389 44.0537 43.086 43.6343V44.3452C42.8169 44.4804 42.5351 44.5883 42.2446 44.6674C40.7912 44.9589 39.5877 44.6981 39.3633 42.7905L39.1135 43.0718C38.6276 43.7102 38.0009 44.2272 37.2825 44.5821C36.5641 44.937 35.7735 45.1202 34.9726 45.1174C32.994 45.1174 31.2601 43.5525 31.2601 41.1539C31.2601 37.4564 33.8099 36.9705 36.426 36.4847C38.6392 36.0653 39.3939 35.871 39.3939 34.3112C39.3939 31.9075 38.221 30.5164 36.1251 30.5164C35.4093 30.5024 34.7065 30.7092 34.1118 31.1089C33.5171 31.5087 33.0593 32.082 32.8002 32.7513H32.4942V30.9511C33.7526 29.8531 35.3504 29.2245 37.0175 29.1714C39.9498 29.1714 41.5459 30.9511 41.5459 34.618L41.5204 42.141ZM39.2868 36.7864L38.3026 37.0114C36.4005 37.4308 33.5498 37.753 33.5498 40.7141C33.5498 42.7598 34.5697 43.7826 36.2832 43.7826C37.1695 43.6732 37.9801 43.2265 38.5474 42.5348C38.7514 42.2995 39.3123 41.7472 39.3123 41.5119L39.2868 36.7864Z" fill="white"/>
<path d="M46.503 41.7113C47.1659 42.9847 48.4 44.1252 49.7157 44.1252C50.4664 44.0868 51.1728 43.7567 51.6849 43.2049C52.1971 42.653 52.4748 41.9229 52.4593 41.1692C52.4593 36.7914 45.8553 39.6349 45.8553 33.9684C45.8553 30.859 47.8951 29.1764 50.4092 29.1764C51.5209 29.1516 52.6169 29.4423 53.571 30.0151C53.2956 30.7654 53.074 31.5345 52.908 32.3165H52.653C52.2859 31.2476 51.3119 30.1737 50.2766 30.1737C48.8794 30.1737 47.7269 31.1198 47.7269 32.874C47.7269 37.0216 54.3308 34.8122 54.3308 40.0031C54.3308 43.4757 51.6484 45.1173 49.1802 45.1173C47.9441 45.1164 46.734 44.7615 45.6921 44.0945C45.9425 43.3164 46.1384 42.5218 46.2786 41.7164L46.503 41.7113Z" fill="white"/>
<path d="M58.0941 20.5027C58.4663 20.5334 58.8284 20.5999 59.216 20.5999C59.6035 20.5999 59.9197 20.5334 60.3379 20.5027V32.3114C61.317 30.3322 62.8519 29.1712 64.8408 29.1712C68.0841 29.1712 69.3437 31.401 69.3437 35.4924V44.8872C68.9204 44.8514 68.594 44.79 68.2218 44.79C67.8495 44.79 67.467 44.8565 67.0999 44.8872V36.2339C67.0999 32.654 66.3808 30.8487 63.9993 30.8487C61.4802 30.8487 60.3379 32.6694 60.3379 36.0396V44.8872C59.9197 44.8514 59.5882 44.79 59.216 44.79C58.8437 44.79 58.4714 44.8565 58.0941 44.8872V20.5027Z" fill="white"/>
</svg>
