<svg width="87" height="58" viewBox="0 0 87 58" fill="none" xmlns="http://www.w3.org/2000/svg">
<path fill-rule="evenodd" clip-rule="evenodd" d="M81.0171 0H5.98287C2.67825 0 0 2.67859 0 5.98361V52.0164C0 55.3214 2.67825 58 5.98287 58H81.0171C84.3217 58 87 55.3214 87 52.0164V5.98361C87 2.67859 84.3217 0 81.0171 0ZM34.4933 16.2011C33.6509 15.5963 32.5278 15.2939 31.0807 15.2939V15.2507H23.1539V30.0477H31.0591C31.707 30.0477 32.3766 29.9613 33.003 29.7669C33.6077 29.5941 34.1693 29.3132 34.6661 28.9244C35.1413 28.5572 35.5516 28.082 35.8108 27.5203C36.0916 26.9155 36.2428 26.2458 36.2212 25.5546C36.2428 25.101 36.178 24.6257 36.0484 24.1937C35.9404 23.8265 35.7892 23.4808 35.5732 23.1568C35.2277 22.6168 34.7525 22.2064 34.1909 21.9471V21.8607C34.6877 21.6231 35.0981 21.2127 35.3356 20.7159C35.6164 20.1758 35.746 19.571 35.746 18.9661C35.7244 17.7348 35.314 16.806 34.4933 16.2011ZM30.4327 20.7375H26.9553V18.2749H30.4327C30.8431 18.2317 31.2751 18.3613 31.5991 18.6421C31.815 18.8797 31.923 19.1821 31.923 19.4846C31.9446 19.8086 31.815 20.1326 31.5991 20.3702C31.2751 20.651 30.8647 20.7807 30.4327 20.7375ZM30.4759 27.0883H26.9553V23.7185H30.4759C30.9727 23.6969 31.4695 23.8481 31.8798 24.1505C32.247 24.4745 32.4414 24.9497 32.3982 25.4466C32.4198 25.9002 32.2686 26.3106 31.9662 26.6347C31.5559 26.9803 31.0159 27.1315 30.4759 27.0883ZM39.8282 30.0909H35.8108L41.0377 15.3155H44.9255L50.282 30.0909H46.0487L45.3359 27.5203H40.5626L39.8282 30.0909ZM42.96 19.1821H42.8736L41.3401 24.6689H44.4719L42.96 19.1821ZM54.645 21.3423H54.7314L60.1527 30.0909H63.9757V15.2939H60.1743V23.5456H60.0879L55.0554 15.2939H50.8436V30.0909H54.645V21.3423ZM69.2674 15.2939V20.4782L74.1271 15.2939H79.138L73.1768 20.9319L79.4836 30.0909H74.7103L70.3473 23.524L69.2458 24.5825V30.0909H65.4444V15.2939H69.2674ZM14.7088 34.8431V32.3589H6.78203V34.8431H9.37389V43.5485H12.1169V34.8431H14.7088ZM21.2964 32.3589C21.6852 32.3589 22.0956 32.4453 22.4412 32.5966C22.7867 32.7478 23.1107 32.9854 23.3483 33.2878C23.6075 33.5902 23.8019 33.9358 23.9315 34.3247C24.0827 34.7351 24.1475 35.1671 24.1475 35.5992C24.1691 36.2472 23.9963 36.8736 23.6723 37.4353C23.3483 37.9537 22.8947 38.3425 22.3548 38.6018L23.9931 42.5934L27.4305 32.3589H30.2383L34.0829 43.5485H31.0375L30.5191 41.6044H27.0849L26.5665 43.5485H24.3851H23.6723H21.4692L19.7845 38.9906H17.5814V43.5485H14.8384V32.3589H21.2964ZM34.0829 43.5485L34.0829 32.3589H37.1068L40.7353 38.6018H40.8001V32.3589H43.5432V43.5485H40.7785L36.8908 36.9385H36.826V43.5485H34.0829ZM20.4757 36.6576C20.7349 36.6792 20.994 36.5712 21.1452 36.3552C21.2964 36.1608 21.3612 35.9232 21.3612 35.6856C21.3612 35.5776 21.3396 35.448 21.318 35.3399C21.2964 35.2319 21.2316 35.1239 21.1668 35.0159C21.102 34.9295 20.994 34.8431 20.886 34.7783C20.7565 34.7135 20.6269 34.6703 20.4757 34.6919H17.603V36.6576H20.4757ZM28.7912 35.2967H28.8344L29.9359 39.4442H27.6897L28.7912 35.2967ZM46.4374 43.5917C47.0206 43.7645 47.6254 43.8509 48.2301 43.8293C48.8133 43.8509 49.4181 43.7645 50.0228 43.5701C50.5412 43.4405 51.038 43.2029 51.47 42.9005C51.8803 42.6197 52.2043 42.2308 52.4419 41.7988C52.6795 41.302 52.8091 40.7835 52.7875 40.2435C52.8091 39.7035 52.7011 39.1418 52.4851 38.645C52.2907 38.2562 52.0099 37.9105 51.6643 37.6297C51.2972 37.3489 50.8868 37.1329 50.4548 36.9817C50.0014 36.8305 49.4831 36.6793 48.9649 36.5282L48.9649 36.5282L48.9648 36.5282L48.9648 36.5281L48.9648 36.5281L48.9647 36.5281L48.9647 36.5281L48.9645 36.528C48.6405 36.4416 48.3381 36.3552 48.0141 36.2256C47.7982 36.1608 47.6038 36.0528 47.431 35.9232C47.3014 35.8368 47.1934 35.7072 47.1286 35.5776C47.0638 35.448 47.0422 35.3184 47.0422 35.1671C47.0638 34.9295 47.1718 34.7135 47.3662 34.5623C48.0357 34.1735 48.8565 34.1951 49.5045 34.6271C49.8068 34.9295 50.0228 35.3184 50.1092 35.7504L52.4635 34.7135C52.3123 34.3031 52.1395 33.9359 51.9019 33.5686C51.6859 33.2446 51.4052 32.9638 51.0812 32.7478C50.7356 32.5102 50.3468 32.3374 49.9364 32.2293C49.4397 32.0997 48.8997 32.0565 48.3813 32.0565C47.7982 32.0565 47.215 32.1213 46.6534 32.2725C46.1567 32.4022 45.7031 32.6182 45.2927 32.9206C44.9039 33.2014 44.6015 33.5686 44.3855 33.9791C44.1696 34.4111 44.0616 34.9079 44.0616 35.4048C44.0616 35.8584 44.148 36.312 44.3207 36.7441C44.4935 37.1329 44.7527 37.4785 45.0767 37.7593C45.4655 38.0833 45.8759 38.3426 46.3294 38.537C46.891 38.7746 47.4742 38.9906 48.0789 39.1634C48.3597 39.2498 48.6405 39.3362 48.9213 39.4658C49.1157 39.5522 49.2885 39.6603 49.4397 39.7899C49.5477 39.8763 49.6341 40.0059 49.6988 40.1571C49.742 40.3083 49.7636 40.4595 49.7636 40.6107C49.7636 40.7619 49.7205 40.9347 49.6341 41.0644C49.5477 41.194 49.4613 41.302 49.3317 41.3668C49.2021 41.4532 49.0725 41.4964 48.9213 41.518L48.9212 41.518C48.77 41.5396 48.6189 41.5612 48.4677 41.5612C47.9493 41.5828 47.431 41.41 47.0206 41.0644C46.6318 40.6755 46.4158 40.1571 46.3942 39.5955L43.7808 40.6539C43.8888 41.086 44.0616 41.518 44.2776 41.9284C44.4935 42.3388 44.7959 42.6629 45.1415 42.9437C45.5303 43.2245 45.9623 43.4405 46.4374 43.5917ZM55.7249 36.5064H59.9799V38.9906H55.7249V43.5485H52.9819V32.3589H61.2758V34.8431H55.7249V36.5064ZM69.7858 32.3589H61.4918V43.5701H69.9369V41.0859H64.2349V38.8394H69.0946V36.3552H64.2349V34.8431H69.7858V32.3589ZM76.5894 32.3589C76.9781 32.3589 77.3885 32.4453 77.7341 32.5966C78.0797 32.7478 78.4037 32.9854 78.6413 33.2878C78.9004 33.5902 79.0948 33.9358 79.2244 34.3247C79.3756 34.7351 79.4404 35.1671 79.4404 35.5992C79.462 36.2472 79.2892 36.8736 78.9652 37.4353C78.6413 37.9537 78.1877 38.3425 77.6477 38.6018L79.678 43.5485H76.7622L75.0775 38.9906H72.8744V43.5485H70.1313V32.3589H76.5894ZM75.7686 36.6576C76.0278 36.6792 76.287 36.5712 76.4382 36.3552C76.5894 36.1608 76.6542 35.9232 76.6542 35.6856C76.6542 35.5776 76.6326 35.448 76.611 35.3399C76.5894 35.2319 76.5246 35.1239 76.4598 35.0159C76.395 34.9295 76.287 34.8431 76.179 34.7783C76.0494 34.7135 75.9198 34.6703 75.7686 34.6919H72.896V36.6576H75.7686ZM6.71722 15.2939H21.6852V18.2961H6.71722V15.2939ZM21.6852 20.9319H6.71722V23.9341H21.6852V20.9319ZM6.71722 27.1097H21.6852V30.112H6.71722V27.1097Z" fill="#F2F2F2"/>
</svg>
