<svg width="87" height="58" viewBox="0 0 87 58" fill="none" xmlns="http://www.w3.org/2000/svg">
<path fill-rule="evenodd" clip-rule="evenodd" d="M87 58H0V0H87V58ZM50.2915 19.7106L60.6225 9.42239L47.0297 18.9889L39.5972 15.1086L67.0571 3.73708L58.81 29.0067L52.9203 21.5155L51.0161 25.4872L50.2915 19.7106ZM47.6662 38.302H41.594C37.8332 38.5276 36.6096 32.3463 41.2317 31.5333H47.6662V38.302ZM51.6509 27.4721H40.7759C32.4829 28.7363 31.6225 40.739 40.685 42.3641H51.6509V31.5333C55.3064 31.6542 56.0616 36.1962 53.3725 37.8507C53.9165 38.4828 56.0922 40.8295 56.0922 40.8295C61.8012 35.9258 58.5385 27.8634 51.6509 27.4721ZM70.4106 32.8871H74.3979C76.9351 33.3383 78.7476 35.3241 78.5668 38.302C78.2495 40.1526 76.8901 42.3184 73.9448 42.3641H60.9858V27.4721H72.4946C71.8832 23.7727 67.6694 23.6598 66.1509 26.0289C66.1509 26.0289 63.682 23.8398 63.1606 23.4118C65.811 18.8314 75.893 19.0794 76.4828 27.4721H78.476V31.5333H64.9731V38.3924H73.7632C74.8286 38.302 74.7836 36.813 73.7632 36.8587H68.688L70.4106 32.8871ZM35.6099 27.4721H30.354C28.6772 29.5027 25.7769 37.7155 31.5317 43.8977C31.5317 43.8977 34.0239 41.7767 34.522 41.3711C32.7554 39.6557 29.81 32.6614 35.6099 27.4721ZM18.9359 47.3215C20.7556 47.3215 22.231 45.8531 22.231 44.041C22.231 42.2289 20.7556 40.7596 18.9359 40.7596C17.1163 40.7596 15.6418 42.2289 15.6418 44.041C15.6418 45.8531 17.1163 47.3215 18.9359 47.3215ZM22.1069 38.302H16.0347C12.2739 38.5276 11.0503 32.3463 15.6724 31.5333H22.1069V38.302ZM15.2192 27.4721C6.92724 28.7363 6.06594 40.739 15.1284 42.3641H15.1887C15.8324 40.9405 17.2673 39.9494 18.9359 39.9494C20.6046 39.9494 22.0395 40.9405 22.6823 42.3641H26.0942V27.4721H15.2192ZM18.6024 22.4601C18.7912 22.4601 18.9449 22.307 18.9449 22.119V22.0805C18.9449 21.8925 18.7912 21.7394 18.6024 21.7394H16.8681V22.4601H18.6024ZM18.9351 20.3883C21.1099 20.9971 20.4527 23.727 19.1176 23.9526L20.7484 25.5776H18.4819L16.8501 23.9526V25.5776H15.4009V20.3883H18.9351ZM23.2721 24.0914C22.6311 24.0914 22.1114 23.5739 22.1114 22.9355C22.1114 22.2972 22.6311 21.7797 23.2721 21.7797C23.9131 21.7797 24.4328 22.2972 24.4328 22.9355C24.4328 23.5739 23.9131 24.0914 23.2721 24.0914ZM23.2721 20.306C21.8138 20.306 20.6316 21.4833 20.6316 22.9355C20.6316 24.3877 21.8138 25.5651 23.2721 25.5651C24.7304 25.5651 25.9126 24.3877 25.9126 22.9355C25.9126 21.4833 24.7304 20.306 23.2721 20.306ZM40.6257 21.8003H38.2522C37.9043 21.8003 37.5941 21.9659 37.3945 22.2211H40.6257V23.6052H37.3945C37.5941 23.8604 37.9043 24.026 38.2522 24.026H40.6257V25.5508H38.6172C37.0385 25.5508 35.7465 24.3636 35.7465 22.9131C35.7465 21.4627 37.0385 20.2755 38.6172 20.2755H40.6257V21.8003ZM28.8184 24.026C28.2205 24.026 27.7314 23.539 27.7314 22.9436V22.8827C27.7314 22.2873 28.2205 21.8003 28.8184 21.8003H31.0741V20.2755H29.0512C27.4725 20.2755 26.1805 21.4627 26.1805 22.9131C26.1805 24.3636 27.4725 25.5508 29.0512 25.5508H31.0741V24.026H28.8184ZM41.0231 20.3758H46.1378V21.7403H44.2651V25.4702H42.8958V21.7403H41.0231V20.3758ZM33.9637 22.9033L36.4811 20.3758H34.4438L33.0278 21.7976V20.3758H31.6585V25.4702H33.0278V24.0099L34.4825 25.4702H36.5206L33.9637 22.9033ZM53.9632 45.3132C54.1349 45.0751 54.3336 44.9336 54.5602 44.8889L54.5647 44.8885V45.1396H55.0412C55.1149 45.1396 55.1896 45.1861 55.266 45.2783C55.3424 45.3723 55.382 45.4565 55.3856 45.5308H55.3442C55.1851 45.5308 55.0349 45.5774 54.8947 45.6687C54.6933 45.7967 54.5917 45.9821 54.5917 46.2247C54.5917 46.3079 54.6043 46.3769 54.6285 46.4333C54.6834 46.564 54.7706 46.6688 54.8893 46.7493C55.0088 46.829 55.1392 46.8693 55.2831 46.8693C55.4116 46.8693 55.5708 46.8201 55.7632 46.7225L55.6364 46.333C55.4629 46.3993 55.3532 46.4324 55.3082 46.4324C55.2498 46.4324 55.1932 46.41 55.1374 46.3635C55.0808 46.3169 55.0529 46.2659 55.0529 46.2086C55.0529 46.1844 55.0574 46.1656 55.0664 46.1504C55.1392 46.0125 55.2561 45.9444 55.417 45.9444C55.5753 45.9444 55.7209 45.9901 55.8549 46.0823C55.9762 46.1656 56.0913 46.2641 56.201 46.3769C56.3466 46.5255 56.4195 46.6473 56.4195 46.7431V47.0197H56.8501V44.8763H56.94H57.1441H57.2574V47.0197H57.688V44.8763H57.8238H57.9748H59.763C59.318 45.042 58.9997 45.1664 58.8073 45.2497C58.3533 45.4449 58.0755 45.5827 57.9757 45.6633L58.0899 46.0904C58.2427 46.0904 58.4468 46.1369 58.704 46.2327C58.9449 46.3214 59.1346 46.4136 59.2713 46.5076C59.6075 46.7386 59.7936 46.9096 59.8305 47.0197H60.2108V44.8763H60.3016H60.5084H60.619V47.0197H61.0487V44.8763L61.1854 44.8763H63.1291L65.2743 44.8763V45.5093C65.179 45.418 65.0819 45.3723 64.9803 45.3723C64.7978 45.3723 64.6261 45.4753 64.4678 45.6803C64.3213 45.4753 64.1397 45.3723 63.923 45.3723C63.691 45.3723 63.5031 45.4449 63.3593 45.589C63.2154 45.7323 63.1444 45.9203 63.1444 46.1522C63.1444 46.2506 63.1642 46.3518 63.2038 46.4557C63.2469 46.5712 63.3009 46.6571 63.3683 46.7135C63.5391 46.8622 63.7252 46.9365 63.9266 46.9365C63.9446 46.9365 63.9985 46.932 64.0866 46.9212L64.2377 46.4888C64.1343 46.5067 64.0615 46.5157 64.0183 46.5157C63.7477 46.5157 63.6128 46.4055 63.6128 46.1853V46.1414L63.6263 46.0304C63.6326 45.9677 63.6659 45.9122 63.727 45.8648C63.7881 45.8173 63.8529 45.7931 63.9203 45.7931C64.0003 45.7931 64.0704 45.837 64.1325 45.923C64.1936 46.0089 64.2242 46.111 64.2242 46.2301H64.6899C64.6899 46.1235 64.7196 46.0304 64.7807 45.9471C64.8418 45.8648 64.9057 45.8236 64.9731 45.8236C65.0459 45.8236 65.1143 45.863 65.1781 45.9409C65.2419 46.0197 65.2743 46.0949 65.2743 46.1692V47.0197H65.704V44.8763H65.9477V44.5003H62.9475L62.8828 44.5003C62.8729 44.1672 62.7542 43.9327 62.5259 43.7966C62.391 43.7187 62.2714 43.6802 62.1644 43.6802C62.0637 43.6802 61.9568 43.6963 61.8444 43.7294C61.5756 43.81 61.3598 43.9067 61.1953 44.0204L61.3319 44.3382C61.4236 44.2989 61.5045 44.255 61.5747 44.2066C61.6295 44.1735 61.6933 44.1511 61.7662 44.1395C61.7841 44.1359 61.8399 44.1225 61.9307 44.0983C61.9981 44.0804 62.0539 44.0714 62.0997 44.0714C62.1303 44.0714 62.1581 44.0741 62.1824 44.0804C62.3685 44.1431 62.462 44.272 62.462 44.469C62.462 44.4743 62.4602 44.4851 62.4566 44.5003L61.3355 44.5003H60.5084H60.3016H57.9748H57.8238H57.1441H56.94H54.6933H54.3732H54.1763C54.0118 44.6453 53.894 44.759 53.8239 44.8387C53.4948 45.2255 53.3303 45.5729 53.3303 45.8818V46.0197C53.3303 46.2157 53.3501 46.3635 53.3896 46.4611C53.4687 46.6607 53.5533 46.7959 53.6414 46.8666C53.7942 46.9884 53.9524 47.0493 54.117 47.0493C54.2383 47.0493 54.3633 47.0108 54.4919 46.9338L54.3498 46.5551C54.2482 46.624 54.1655 46.658 54.1017 46.658C53.9758 46.658 53.876 46.5757 53.8032 46.4082C53.7448 46.2775 53.716 46.1414 53.716 46.0017C53.716 45.769 53.7978 45.5398 53.9632 45.3132ZM56.4195 44.8763H55.4062C55.693 45.0608 55.8414 45.3025 55.854 45.6006C56.0365 45.6723 56.2253 45.8137 56.4195 46.0259V44.8763ZM59.7882 45.3401C59.7082 45.367 59.6228 45.3974 59.5302 45.4332C59.3953 45.4923 59.1499 45.5997 58.7939 45.7537L58.712 45.7896C59.0519 45.9077 59.3764 46.0832 59.6866 46.3151L59.7341 46.3504L59.7664 46.3743L59.7882 46.3903V45.3401ZM62.6814 47.3806C62.507 47.223 62.3209 47.077 62.1231 46.9401C62.0287 46.8756 61.8713 46.8031 61.652 46.7234C61.4785 46.6607 61.376 46.6294 61.3454 46.6294L61.3508 46.128C61.3868 46.128 61.4425 46.1298 61.5171 46.1343C61.5917 46.1387 61.6475 46.1414 61.6843 46.1414C61.8794 46.1414 62.0377 46.1164 62.1599 46.0662C62.391 45.9695 62.507 45.8558 62.507 45.7242C62.507 45.6275 62.4629 45.5469 62.3748 45.4825C62.2894 45.4323 62.2022 45.384 62.1141 45.3374C62.0898 45.3258 62.0646 45.3195 62.0413 45.3195C61.9891 45.3195 61.9325 45.333 61.8713 45.3589C61.7949 45.3947 61.7608 45.4341 61.7662 45.478C61.7814 45.589 61.8992 45.6356 62.1186 45.6186L61.8857 45.974C61.7913 45.9803 61.6951 45.9507 61.5971 45.8854C61.42 45.7663 61.3319 45.6213 61.3319 45.4493C61.3319 45.2774 61.4218 45.144 61.6016 45.0482C61.7482 44.9686 61.9163 44.9283 62.1051 44.9283C62.1869 44.9283 62.2588 44.9426 62.3182 44.9686C62.3775 44.9954 62.4378 45.025 62.4989 45.0572C62.7911 45.2058 62.9376 45.4305 62.9376 45.7323C62.9376 45.9489 62.8477 46.1235 62.6679 46.2569C62.5304 46.3572 62.3335 46.4297 62.0772 46.4745C62.1536 46.5094 62.2633 46.5703 62.4063 46.6562C62.6508 46.8398 62.8477 47.0045 62.997 47.1496L62.6814 47.3806ZM68.9568 45.3401C68.8777 45.367 68.7914 45.3974 68.6997 45.4332C68.5648 45.4923 68.3194 45.5997 67.9634 45.7537L67.8807 45.7896C68.2214 45.9077 68.546 46.0832 68.8561 46.3151L68.912 46.3567L68.9359 46.3745L68.9568 46.3903V45.3401ZM68.9325 44.8763H66.9933V44.5003H69.4936H69.6779H70.5733H70.6938H71.6072V44.8763H71.3204V47.0197H70.8898V44.8763H70.6938H70.5733H70.3998C70.2632 45.0634 70.1957 45.2183 70.1957 45.3401C70.1957 45.3965 70.265 45.623 70.4043 46.0188C70.4762 46.2184 70.5131 46.3832 70.5131 46.5148C70.5131 46.7646 70.3728 46.9383 70.0923 47.0367C70.0069 47.0699 69.855 47.0958 69.6356 47.1173L69.6932 46.7467C69.9476 46.6929 70.0752 46.6043 70.0752 46.479C70.0752 46.3626 70.0222 46.1844 69.9161 45.9427C69.81 45.7018 69.7579 45.5245 69.7579 45.4117C69.7579 45.2658 69.819 45.0876 69.9413 44.8763H69.6779H69.4936H69.3803V47.0197H69C68.9631 46.9096 68.777 46.7386 68.4408 46.5076C68.3032 46.4136 68.1144 46.3214 67.8726 46.2327C67.6163 46.1369 67.4122 46.0904 67.2594 46.0904L67.1443 45.6633C67.245 45.5827 67.5228 45.4449 67.9769 45.2497C68.1693 45.1664 68.4875 45.042 68.9325 44.8763ZM72.2743 44.9838C72.3175 44.9775 72.3607 44.99 72.4038 45.0196C72.4928 45.0814 72.5369 45.1646 72.5369 45.2685C72.5369 45.3786 72.4757 45.4529 72.3526 45.4914L72.2932 45.5004C72.2258 45.5004 72.1656 45.4708 72.1116 45.4135C72.0577 45.3553 72.0307 45.2927 72.0307 45.2237C72.0307 45.0903 72.1116 45.0106 72.2743 44.9838ZM71.6729 46.4485C71.8689 46.5407 72.2384 46.8156 72.7841 47.2731L73.15 47.5757V47.1352C72.919 46.8174 72.4281 46.3912 71.6783 45.8567L71.6729 46.4485ZM71.8284 45.7018C71.9507 45.8281 72.1125 45.8916 72.3139 45.8916C72.509 45.8916 72.6591 45.8352 72.7643 45.7224C72.8695 45.6096 72.9226 45.4556 72.9226 45.2631C72.9226 45.1593 72.8974 45.0536 72.8488 44.9462C72.7356 44.6937 72.5531 44.5674 72.3004 44.5674C72.1134 44.5674 71.9579 44.6292 71.8338 44.7528C71.7079 44.8763 71.6459 45.0294 71.6459 45.2139C71.6459 45.4126 71.707 45.5756 71.8284 45.7018ZM75.8571 44.2487C75.3554 43.9354 74.9454 43.7778 74.6263 43.7778C74.2496 43.7778 73.9727 43.8969 73.7964 44.1341C73.7353 44.2174 73.702 44.34 73.6957 44.5003L73.7101 44.5003H76.6653V44.8763H75.5002V44.8898C75.68 44.8987 75.8679 44.9551 76.063 45.059C76.3372 45.2085 76.4747 45.4108 76.4747 45.6669C76.4747 45.8164 76.4289 45.9453 76.3372 46.0537C76.2446 46.162 76.125 46.2336 75.9767 46.2677C75.8283 46.3026 75.7024 46.3071 75.5982 46.2838V45.8782C75.6476 45.8845 75.6926 45.888 75.7357 45.888C75.9515 45.888 76.0594 45.8102 76.0594 45.6562C76.0594 45.4717 75.8724 45.3562 75.5002 45.3088V47.0197H75.1208C75.0587 46.9007 74.9985 46.8093 74.9373 46.744C74.9158 46.7198 74.8609 46.6491 74.7719 46.53C74.7449 46.4915 74.6946 46.4431 74.6218 46.3832C74.5481 46.3241 74.4977 46.2757 74.4707 46.2372C74.4582 46.2193 74.424 46.1996 74.3691 46.179C74.183 46.1137 74.032 46.0805 73.916 46.0805L73.8018 45.6544C73.8971 45.5863 74.1102 45.4583 74.4429 45.2721C74.4671 45.2542 74.5687 45.1951 74.7477 45.0939C74.8115 45.0554 74.9194 44.9927 75.0695 44.9068V44.8763L73.9978 44.8763H73.6957V47.0197H73.2579V44.8763H72.9711V44.5003H73.2579C73.2669 44.1959 73.3676 43.9488 73.56 43.759C73.7515 43.5701 74.0122 43.4537 74.3422 43.4089C74.3754 43.4062 74.4402 43.3991 74.5346 43.3865H74.6254C74.8879 43.3865 75.1486 43.4429 75.4085 43.5557C75.5487 43.6211 75.7789 43.7509 76.0989 43.947L75.8571 44.2487ZM74.7486 45.5845C74.8924 45.4959 74.9994 45.4243 75.0695 45.3714V46.3724C74.923 46.2157 74.8025 46.0832 74.7081 45.9767C74.6065 45.9024 74.5337 45.8442 74.4878 45.803C74.531 45.7645 74.5759 45.7224 74.6236 45.6758C74.6703 45.6302 74.7126 45.5997 74.7486 45.5845ZM77.3972 45.0196C77.3549 44.99 77.3118 44.9775 77.2686 44.9838C77.1059 45.0106 77.025 45.0903 77.025 45.2237C77.025 45.2927 77.0519 45.3553 77.1059 45.4135C77.1589 45.4708 77.22 45.5004 77.2875 45.5004L77.3468 45.4914C77.47 45.4529 77.5311 45.3786 77.5311 45.2685C77.5311 45.1646 77.4862 45.0814 77.3972 45.0196ZM77.7784 47.2731C77.2326 46.8156 76.8622 46.5407 76.6671 46.4485L76.6716 45.8567C77.4223 46.3912 77.9123 46.8174 78.1443 47.1352V47.5757L77.7784 47.2731ZM77.3082 45.8916C77.1068 45.8916 76.9449 45.8281 76.8227 45.7018C76.7004 45.5756 76.6393 45.4126 76.6393 45.2139C76.6393 45.0294 76.7022 44.8763 76.8272 44.7528C76.9521 44.6292 77.1077 44.5674 77.2938 44.5674C77.5473 44.5674 77.7298 44.6937 77.8431 44.9462C77.8916 45.0536 77.9159 45.1593 77.9159 45.2631C77.9159 45.4556 77.8638 45.6096 77.7586 45.7224C77.6534 45.8352 77.5023 45.8916 77.3082 45.8916ZM30.5248 47.4728L29.7228 47.2033L30.0438 46.923L30.8458 47.2033L30.5248 47.4728ZM29.2949 45.9955C29.3758 46.0188 29.4828 45.8889 29.5628 45.7824V46.2793C29.5628 46.4691 29.4109 46.6347 29.2949 46.6347H28.1729V45.9955H29.2949ZM29.9908 44.9865V44.503H23.6929V44.9865H24.7511V46.0662H25.66C25.66 46.0662 25.918 45.9838 25.981 45.8531V46.2793C25.981 46.4691 25.838 46.6347 25.66 46.6347H24.324C24.2431 46.6347 24.1631 46.5989 24.1631 46.2793V45.273H23.6929V46.564C23.6929 46.6706 23.7603 47.0466 24.0983 47.0466H25.9099C26.1922 47.0376 26.3927 46.7511 26.408 46.5103V45.273H25.981C25.9717 45.3122 25.9654 45.3489 25.9597 45.3828C25.9376 45.5129 25.9225 45.6024 25.767 45.64H25.232V44.9865H26.7829V47.0466H27.317V44.9865H27.6919V47.0466H29.4558C29.5808 47.0466 29.9908 46.9427 29.9908 46.4933V45.273H29.5628C29.5628 45.3911 29.5448 45.5693 29.3488 45.5693H28.1729V44.9865H29.9908ZM31.6477 46.1369H30.5787V45.5693H31.6477V46.1369ZM33.9997 46.7055H32.9307C32.7706 46.6822 32.6637 46.4933 32.6637 46.2793V45.7108H33.9997V46.7055ZM32.2384 44.503V44.9865H33.9997V45.273H32.2384V46.4217C32.2762 46.7959 32.4686 47.0466 32.8345 47.0466H34.4276V44.9865H34.8016V47.0466H35.2826V44.503H32.2384ZM39.7734 44.9865H37.5923V44.503H41.0033V47.0466H40.5223V44.9865H40.2014V47.0466H39.7204V45.7824C39.6934 45.6633 39.0964 45.6517 39.1324 45.7824V46.0662H38.5974V45.7108H38.0095V46.3509C38.0095 46.5282 38.1075 46.5989 38.2234 46.6347H38.8114V47.0466H37.9366C37.6103 46.9982 37.5923 46.6115 37.5923 46.4933V45.273H38.7044C38.7755 45.5836 39.1054 45.4744 39.1324 45.273H39.7734V44.9865ZM36.4874 45.358C36.2824 45.358 36.116 45.2828 36.116 45.1906C36.116 45.0993 36.2824 45.0241 36.4874 45.0241C36.6923 45.0241 36.8587 45.0993 36.8587 45.1906C36.8587 45.2828 36.6923 45.358 36.4874 45.358ZM36.8335 44.6453H35.6971V45.3132C35.742 45.5263 35.8562 45.7896 36.2455 45.8102H37.1545V44.9865C37.1275 44.8468 37.0295 44.6686 36.8335 44.6453ZM35.7726 46.4799V46.0608L37.1464 46.6034V47.0475L35.7726 46.4799ZM48.0052 45.358C47.8002 45.358 47.6339 45.2828 47.6339 45.1906C47.6339 45.0993 47.8002 45.0241 48.0052 45.0241C48.2102 45.0241 48.3765 45.0993 48.3765 45.1906C48.3765 45.2828 48.2102 45.358 48.0052 45.358ZM48.3513 44.6453H47.2158V45.3132C47.2599 45.5263 47.374 45.7896 47.7633 45.8102H48.6723V44.9865C48.6453 44.8468 48.5473 44.6686 48.3513 44.6453ZM47.2904 46.4799V46.0608L48.6642 46.6034V47.0475L47.2904 46.4799ZM50.8408 46.7055H49.7718C49.6109 46.6822 49.5048 46.4933 49.5048 46.2793V45.7108H50.8327L50.8399 45.7824H50.8408V46.7055ZM51.2688 45.273V44.9865H52.1543V44.503H49.0795V44.9865H50.8408V45.273H49.0795V46.4217C49.1173 46.7959 49.3097 47.0466 49.6747 47.0466H51.2688V45.7824H51.6958C51.7124 45.7824 51.7261 45.7804 51.7376 45.7788C51.7752 45.7734 51.789 45.7715 51.8028 45.8531V46.0662L51.7941 46.1016C51.773 46.1894 51.7587 46.2484 51.6958 46.2793H51.5385V46.7055H51.8558C51.9628 46.6938 52.1588 46.5757 52.1768 46.4217V45.273H51.2688ZM43.135 46.7055H44.2049V45.7108H42.868V46.2793C42.868 46.4933 42.975 46.6822 43.135 46.7055ZM42.4427 44.9865V44.503H46.8022V47.0466H46.3212V44.9865H45.5678L45.4671 45.3195C46.1246 45.3873 46.1115 45.6187 46.0626 46.4828C46.0604 46.5203 46.0582 46.559 46.056 46.5989C46.0142 47.0397 45.5869 47.0292 45.4416 47.0256C45.4308 47.0253 45.4215 47.0251 45.4141 47.0251H45.0392V46.5989H45.3889C45.5732 46.5801 45.6281 46.4091 45.6281 46.1719C45.6281 45.8289 45.5597 45.6973 45.3611 45.675H44.9861V45.3902L45.1893 44.9865H44.6319V47.0466H43.0388C42.6738 47.0466 42.4814 46.7959 42.4427 46.4217V45.273H44.2049V44.9865H42.4427Z" fill="white"/>
</svg>
